#N canvas 297 141 930 666 10;
#X obj 43 349 dac~;
#N canvas 0 22 450 300 (subpatch) 0;
#X array voice 88200 float 2;
#X coords 0 1 88199 -1 400 140 1;
#X restore 382 44 graph;
#X obj 395 280 adc~;
#X obj 395 333 tabwrite~ voice;
#X obj 341 283 bng 15 250 50 0 empty empty empty 17 7 0 10 -262144
-1 -1;
#X msg 573 315 \; voice normalize;
#X obj 43 240 vline~;
#X obj 43 296 tabread4~ voice;
#X obj 383 26 hsl 400 15 2 88197 0 0 empty empty empty -2 -8 0 10 -262144
-1 -1 11093 1;
#X obj 255 274 line;
#X obj 383 186 hsl 400 15 2 88197 0 0 empty empty empty -2 -8 0 10
-262144 -1 -1 11093 1;
#X obj 43 186 pack f 60;
#X text 45 456 adapted from Tom Erbe example;
#X obj 41 22 receive fromGUI;
#X obj 41 50 list trim;
#X floatatom 41 98 5 0 0 0 - - -, f 5;
#X obj 41 120 * 88197;
#X obj 41 77 route /scrub /record /normalize;
#X obj 207 192 t b;
#X obj 249 191 t b;
#X connect 2 0 3 0;
#X connect 4 0 3 0;
#X connect 6 0 7 0;
#X connect 7 0 0 0;
#X connect 7 0 0 1;
#X connect 8 0 11 0;
#X connect 9 0 10 0;
#X connect 11 0 6 0;
#X connect 11 0 9 0;
#X connect 13 0 14 0;
#X connect 14 0 17 0;
#X connect 15 0 16 0;
#X connect 16 0 8 0;
#X connect 17 0 15 0;
#X connect 17 1 18 0;
#X connect 17 2 19 0;
#X connect 18 0 4 0;
#X connect 19 0 5 0;
