#N canvas 320 23 1317 932 10;
#X obj 374 108 openpanel;
#X msg 374 134 open \$1;
#X obj 374 85 bng 15 250 50 0 empty empty empty 17 7 0 10 -262144 -1
-1;
#X obj 421 681 dac~;
#X msg 282 587 \; pd dsp \$1;
#X obj 282 564 tgl 15 0 empty empty empty 17 7 0 10 -262144 -1 -1 0
1;
#X text 304 560 <- turn on sound;
#X obj 374 216 soundfiler;
#N canvas 0 22 450 300 (subpatch) 0;
#X array soundbuffer2 8899 float 2;
#X coords 0 1 8899 -1 200 140 1;
#X restore 879 293 graph;
#X obj 421 617 *~ 0.7;
#X floatatom 460 590 5 0 1 0 - - -, f 5;
#X obj 421 483 line~;
#X text 453 106 < allows us to find a file;
#X text 453 130 < \$1 variable is replaced with file path;
#X text 453 82 < bang to open file;
#X text 593 155 < this message tells soundfiler to resize the array
to the size of the sound file and put in an array called "soundbuffer"
;
#X text 463 215 < soundfiler does the work of filling an array with
a sound file's values;
#X obj 278 180 print open:;
#X obj 278 262 print samples:;
#X msg 421 411 0 201.791;
#X msg 179 347 8899;
#X text 249 345 1) set to end point of array;
#X text 493 410 2) 0 as beginning of array \; and milliseconds to get
there.;
#X msg 374 168 read -resize \$1 soundbuffer2;
#X obj 421 510 tabread4~ soundbuffer2;
#X msg 436 438 0 14000;
#N canvas 324 23 689 474 sampleConversion 0;
#X obj 244 30 inlet;
#X obj 10 410 outlet;
#X obj 314 402 outlet;
#X floatatom 244 67 10 0 0 1 number_of_samples - -, f 10;
#X obj 30 182 / 44.1;
#X floatatom 30 214 10 0 0 1 milliseconds - -, f 10;
#X text 84 179 < sampling rate (by default 44.1 KHz);
#X obj 9 286 pack f f;
#X obj 30 245 t b f;
#X text 79 243 < using trigger to make sure order of events happens
correctly;
#X text 81 287 < pack to format message;
#X obj -78 225 f 0;
#X connect 0 0 3 0;
#X connect 3 0 4 0;
#X connect 3 0 2 0;
#X connect 4 0 5 0;
#X connect 5 0 8 0;
#X connect 7 0 1 0;
#X connect 8 0 11 0;
#X connect 8 1 7 1;
#X connect 11 0 7 0;
#X restore 373 263 pd sampleConversion;
#X msg 421 372 set \$1 \$2;
#X msg 179 311 set \$1;
#X connect 0 0 1 0;
#X connect 1 0 23 0;
#X connect 1 0 17 0;
#X connect 2 0 0 0;
#X connect 5 0 4 0;
#X connect 7 0 18 0;
#X connect 7 0 26 0;
#X connect 9 0 3 0;
#X connect 9 0 3 1;
#X connect 10 0 9 1;
#X connect 11 0 24 0;
#X connect 19 0 11 0;
#X connect 20 0 11 0;
#X connect 23 0 7 0;
#X connect 24 0 9 0;
#X connect 25 0 11 0;
#X connect 26 0 27 0;
#X connect 26 1 28 0;
#X connect 27 0 19 0;
#X connect 28 0 20 0;
