#N canvas 320 23 960 684 16;
#X obj 288 282 osc~;
#X msg 71 517 \; pd dsp \$1;
#X obj 71 469 tgl 30 0 empty empty empty 17 7 0 10 -262144 -1 -1 1
1;
#X obj 286 604 dac~;
#X obj 288 222 line~;
#X floatatom 288 147 5 0 0 0 - - -, f 5;
#X obj 288 180 pack f 200;
#X obj 401 222 line~;
#X floatatom 401 147 5 0 0 0 - - -, f 5;
#X obj 401 180 pack f 200;
#X obj 287 378 +~;
#X obj 401 282 osc~;
#X msg 591 222 0;
#X text 644 220 <- phase synchronize;
#X obj 286 526 *~ 0.2;
#X obj 288 101 r osc1;
#X msg 76 108 \; osc1 400 \; osc2 405 \;;
#X obj 401 101 r osc2;
#X msg 76 181 \; osc1 400 \; osc2 402 \;;
#X msg 76 251 \; osc1 400 \; osc2 401 \;;
#X msg 76 321 \; osc1 400 \; osc2 410 \;;
#X obj 517 104 line;
#X msg 517 68 300 \, 500 30000;
#X text 78 22 beating frequencies / amplitude modulation;
#X connect 0 0 10 0;
#X connect 2 0 1 0;
#X connect 4 0 0 0;
#X connect 5 0 6 0;
#X connect 6 0 4 0;
#X connect 7 0 11 0;
#X connect 8 0 9 0;
#X connect 9 0 7 0;
#X connect 10 0 14 0;
#X connect 11 0 10 1;
#X connect 12 0 0 1;
#X connect 12 0 11 1;
#X connect 14 0 3 0;
#X connect 14 0 3 1;
#X connect 15 0 5 0;
#X connect 17 0 8 0;
#X connect 21 0 8 0;
#X connect 22 0 21 0;
