#N canvas 320 23 960 684 10;
#X obj 59 259 osc~;
#X msg 141 566 \; pd dsp \$1;
#X obj 141 519 tgl 30 0 empty empty empty 17 7 0 10 -262144 -1 -1 1
1;
#X obj 58 581 dac~;
#X obj 59 199 line~;
#X floatatom 59 124 5 0 0 0 - - -, f 5;
#X obj 59 157 pack f 200;
#X obj 285 187 line~;
#X floatatom 285 112 5 0 0 0 - - -, f 5;
#X obj 285 145 pack f 200;
#X obj 58 503 *~ 0.2;
#N canvas 0 22 450 300 (subpatch) 0;
#X array array_am 100 float 0;
#X coords 0 1 99 -1 200 140 1;
#X restore 346 466 graph;
#X obj 347 383 metro 100;
#X obj 347 346 tgl 30 0 empty empty empty 17 7 0 10 -262144 -1 -1 1
1;
#X text 387 347 <- graph;
#X obj 347 413 tabwrite~ array_am;
#X obj 59 355 *~;
#X obj 59 78 r carrier_freq;
#X obj 285 66 r mod_freq;
#X obj 285 259 osc~;
#X obj 285 302 *~ 0.5;
#X floatatom 348 257 5 0 0 0 - - -, f 5;
#X obj 348 219 r mod_index;
#X obj 516 294 s mod_freq;
#X obj 435 85 s carrier_freq;
#X msg 470 167 1;
#X msg 502 167 2;
#X msg 532 167 4;
#X msg 564 167 8;
#X msg 596 167 16;
#X floatatom 435 50 5 0 0 0 - - -, f 5;
#X msg 615 215 32;
#X msg 663 215 50;
#X msg 710 215 100;
#X msg 758 215 150;
#X msg 806 215 200;
#X msg 855 215 250;
#X msg 905 215 500;
#X text 626 168 <- sub-audio modulation (tremolo);
#X text 638 290 ^ audio modulation (difference tones);
#X floatatom 612 48 5 0 0 0 - - -, f 5;
#X obj 612 112 s mod_index;
#X obj 612 81 clip 0 1;
#X msg 438 167 0.5;
#X msg 399 167 0.25;
#X text 24 16 AMPLITUDE MODULATION AND TREMELO;
#X text 571 509 In Amplitude Modulation \, the amplitude of the carrier
oscillator varies in accordance with a modulating oscillator.;
#X connect 0 0 16 0;
#X connect 2 0 1 0;
#X connect 4 0 0 0;
#X connect 5 0 6 0;
#X connect 6 0 4 0;
#X connect 7 0 19 0;
#X connect 8 0 9 0;
#X connect 9 0 7 0;
#X connect 10 0 3 0;
#X connect 10 0 3 1;
#X connect 12 0 15 0;
#X connect 13 0 12 0;
#X connect 16 0 10 0;
#X connect 16 0 15 0;
#X connect 17 0 5 0;
#X connect 18 0 8 0;
#X connect 19 0 20 0;
#X connect 20 0 16 1;
#X connect 21 0 20 1;
#X connect 22 0 21 0;
#X connect 25 0 23 0;
#X connect 26 0 23 0;
#X connect 27 0 23 0;
#X connect 28 0 23 0;
#X connect 29 0 23 0;
#X connect 30 0 24 0;
#X connect 31 0 23 0;
#X connect 32 0 23 0;
#X connect 33 0 23 0;
#X connect 34 0 23 0;
#X connect 35 0 23 0;
#X connect 36 0 23 0;
#X connect 37 0 23 0;
#X connect 40 0 42 0;
#X connect 42 0 41 0;
#X connect 43 0 23 0;
#X connect 44 0 23 0;
