#N canvas 320 23 1280 684 12;
#X msg 222 560 \; pd dsp \$1;
#X obj 222 512 tgl 30 0 empty empty empty 17 7 0 10 -262144 -1 -1 0
1;
#X obj 138 575 dac~;
#X obj 366 181 line~;
#X floatatom 366 106 5 0 0 0 - - -, f 5;
#X obj 366 139 pack f 200;
#N canvas 0 22 450 300 (subpatch) 0;
#X array array_rm 100 float 0;
#X coords 0 1 99 -1 200 140 1;
#X restore 429 460 graph;
#X obj 428 377 metro 100;
#X obj 428 340 tgl 30 0 empty empty empty 17 7 0 10 -262144 -1 -1 0
1;
#X text 468 341 <- graph;
#X obj 366 253 osc~;
#X msg 556 164 1;
#X msg 599 164 2;
#X msg 642 164 4;
#X msg 684 164 8;
#X msg 726 164 16;
#X msg 692 220 32;
#X msg 735 220 50;
#X msg 777 220 100;
#X msg 820 220 150;
#X msg 862 220 200;
#X msg 905 220 250;
#X msg 947 220 500;
#X floatatom 760 70 5 0 0 0 - - -, f 5;
#X obj 366 296 *~;
#X obj 431 252 line~;
#X msg 431 224 \$1 40;
#X obj 366 60 r mod_freq-fm;
#X obj 431 196 r mod_index-fm;
#X obj 760 105 s mod_index-fm;
#X obj 584 291 s mod_freq-fm;
#X text 137 104 ring modulation;
#X obj 139 344 *~;
#X obj 140 192 adc~;
#X floatatom 177 452 5 0 0 0 - - -, f 5;
#X obj 138 497 *~ 0.5;
#X obj 428 407 tabwrite~ array_rm;
#X text 84 131 PLUG IN HEADPHONES BEFORE TRYING \; risk of feedback!
;
#X connect 1 0 0 0;
#X connect 3 0 10 0;
#X connect 4 0 5 0;
#X connect 5 0 3 0;
#X connect 7 0 36 0;
#X connect 8 0 7 0;
#X connect 10 0 24 0;
#X connect 11 0 30 0;
#X connect 12 0 30 0;
#X connect 13 0 30 0;
#X connect 14 0 30 0;
#X connect 15 0 30 0;
#X connect 16 0 30 0;
#X connect 17 0 30 0;
#X connect 18 0 30 0;
#X connect 19 0 30 0;
#X connect 20 0 30 0;
#X connect 21 0 30 0;
#X connect 22 0 30 0;
#X connect 23 0 29 0;
#X connect 24 0 32 1;
#X connect 25 0 24 1;
#X connect 26 0 25 0;
#X connect 27 0 4 0;
#X connect 28 0 26 0;
#X connect 32 0 35 0;
#X connect 32 0 36 0;
#X connect 33 0 32 0;
#X connect 34 0 35 1;
#X connect 35 0 2 0;
#X connect 35 0 2 1;
